<?xml version="1.0" encoding="UTF-8"?>
<svg width="102.58mm" height="110.79mm" version="1.1" viewBox="0 0 102.58 110.79" xmlns="http://www.w3.org/2000/svg" xmlns:cc="http://creativecommons.org/ns#" xmlns:dc="http://purl.org/dc/elements/1.1/" xmlns:rdf="http://www.w3.org/1999/02/22-rdf-syntax-ns#">
<metadata>
<rdf:RDF>
<cc:Work rdf:about="">
<dc:format>image/svg+xml</dc:format>
<dc:type rdf:resource="http://purl.org/dc/dcmitype/StillImage"/>
<dc:title/>
</cc:Work>
</rdf:RDF>
</metadata>
<g transform="translate(-360.88 -49.001)">
<path d="m429.93 159.57c-3.9749-0.2058-5.3688-0.36183-14.155-1.5845-8.313-1.1568-17.363-3.451-23.073-5.8491-3.9663-1.6657-5.4958-2.0437-9.3883-2.32-5.1591-0.36628-7.3394-1.1046-9.8034-3.32-2.1096-1.8967-4.1988-5.4849-6.5832-11.306-0.6583-1.6073-1.735-4.0692-2.3926-5.471-3.0906-6.5874-3.652-8.7094-3.6491-13.793 2e-3 -3.3689 0.0784-4.046 0.62782-5.5562 1.4292-3.9289 3.5267-7.272 6.8663-10.944 1.0407-1.1444 1.9438-2.335 2.0068-2.6458 0.063-0.31086 0.26515-1.3831 0.44918-2.3827 0.27692-1.5042 0.37771-1.7208 0.58479-1.2568 0.30107 0.67472 0.58233 0.71592 0.81145 0.11885 0.15569-0.40572-0.0939-0.71849-0.77441-0.97038-0.14552-0.0539-0.0562-0.33307 0.19844-0.62045 0.25466-0.28738 0.47489-0.87032 0.4894-1.2954 0.0145-0.42511 0.1122-1.0706 0.2171-1.4344 0.18432-0.63921 0.37823 0.56625 0.95766 5.9531 0.0939 0.87312 0.45739 2.4119 0.80772 3.4196 0.35034 1.0076 0.63698 2.0494 0.63698 2.3151 0 0.26568 0.10588 0.48305 0.2353 0.48305s0.18749-1.0418 0.12906-2.3151c-0.0584-1.2733-0.0155-2.1365 0.0954-1.9182 0.11092 0.21828 0.43601 0.74305 0.72242 1.1662 0.42728 0.63119 0.50647 1.1298 0.44121 2.7781-0.0437 1.1049-0.18879 2.122-0.32231 2.2602-0.15068 0.156-0.24278 0.0807-0.24278-0.19844 0-0.50244-0.4037-0.60226-0.67306-0.16642-0.3304 0.53459 0.17607 2.6247 0.82203 3.3924 0.63163 0.75065 0.64025 0.82323 0.38544 3.2424-0.14336 1.361-0.26272 3.8368-0.26524 5.5017-4e-3 2.6658-0.049 2.9664-0.37645 2.5186-0.34992-0.47855-0.36408-0.46781-0.23985 0.18205 0.11801 0.61731 0.0622 0.67726-0.52596 0.56483-0.52744-0.10083-0.74695-0.40865-1.1064-1.5516-0.24666-0.78418-0.39873-1.575-0.33795-1.7573 0.0608-0.18235-0.2488-1.1069-0.68796-2.0545-0.69149-1.4921-0.8133-2.0997-0.90906-4.5349-0.0833-2.1189-5.8e-4 -3.1903 0.33566-4.347 0.48542-1.6698 0.92141-1.5929 0.92896 0.16378 5e-3 1.0756 0.98126 5.0228 1.3312 5.3804 0.3134 0.32021 0.15791-1.0512-0.65098-5.7416-0.37151-2.1542-0.75331-5.2796-0.84845-6.9453-0.0951-1.6657-0.27683-3.0286-0.40378-3.0286-0.28581 0-0.74688 1.1701-0.74688 1.8955 0 0.74097-0.78751 2.3373-1.1546 2.3405-0.16532 1e-3 -0.49743 0.56697-0.73801 1.2568-0.24058 0.68979-1.155 2.803-2.0322 4.696-2.4623 5.3144-3.3901 9.8027-2.8906 13.985 0.17421 1.4586 0.57068 2.5863 1.8224 5.1835 0.87985 1.8256 1.823 3.8779 2.0958 4.5606 0.91839 2.2981 3.4336 7.1038 5.3275 10.179 3.4151 5.5451 5.8619 7.6096 10.952 9.2408 1.6496 0.52866 3.8081 1.383 4.7967 1.8985 0.98862 0.51549 2.3333 1.2163 2.9881 1.5574 0.93397 0.48645 1.9036 0.67804 4.4979 0.8888 1.819 0.14778 4.617 0.57362 6.2177 0.94632 2.7438 0.63885 7.5406 1.1611 7.5406 0.82102 0-0.0856-0.716-0.29654-1.5911-0.46871-2.0034-0.39413-3.8324-1.5339-4.412-2.7493-0.39849-0.83563-0.40937-1.2507-0.10932-4.1717 0.36868-3.589 0.54102-3.9462 2.2759-4.7164 3.4043-1.5114 10.187-1.9535 26.366-1.7184l12.343 0.17938 2.6058-1.2957c1.4332-0.71266 4.3753-2.0546 6.5382-2.9822l3.9324-1.6864-0.17324-1.4651c-0.29807-2.5207-0.66716-10.551-0.67536-14.694-0.012-6.0847-0.59477-8.7899-2.4895-11.557-1.0318-1.5069-3.8653-7.2481-3.8653-7.8318 0-0.12174-0.17845-0.45245-0.39655-0.73493-0.36598-0.47401-0.3867-0.42184-0.26878 0.67704 0.0966 0.90002 0.0707 1.0292-0.10624 0.52916-0.22541-0.63713-0.23499-0.62984-0.26039 0.19844-0.0145 0.47294 0.0969 0.8599 0.24752 0.8599 0.1888 0 0.1888 0.15899 0 0.51177-0.34587 0.64625-0.34291 2.7366 6e-3 4.1184 0.42452 1.6822 0.54673 8.2509 0.18705 10.054l-0.31664 1.5875-0.1742-1.1906c-0.0958-0.65485-0.0653-1.3276 0.0678-1.4951 0.27849-0.35032 0.24367-4.3257-0.0379-4.3257-0.10269 0-0.33397 0.50602-0.51395 1.1245-0.17998 0.61847-0.75134 1.9928-1.2697 3.0542-1.5969 3.2697-4.4881 5.4884-11.078 8.5014-3.7492 1.7141-3.9981 1.8094-9.6335 3.6897-6.7176 2.2413-6.6675 2.228-6.9144 1.8386-0.1217-0.19192-0.22471-2.4326-0.22893-4.9792-4e-3 -2.5466-0.0789-4.896-0.16597-5.2208-0.12213-0.45562-0.0155-0.6452 0.46664-0.82953 1.3475-0.51521 2.3436-2.4076 2.3466-4.4584 1e-3 -0.6959 0.16322-2.3396 0.36042-3.6526l0.35855-2.3874 3.3762-3.4335c1.8569-1.8884 3.2984-3.2058 3.2033-2.9276-0.0951 0.2782-0.5999 1.9451-1.1219 3.7042-1.2952 4.365-4.3376 14.413-5.5351 18.28-0.54075 1.7462-1.0826 3.2854-1.2041 3.4203-0.12674 0.14072-0.39421-0.16947-0.62742-0.7276-0.22357-0.53509-0.4679-0.97289-0.54295-0.97289-0.19291 0 0.0218 2.2348 0.25021 2.6044 0.11528 0.18652 0.0108 0.30606-0.26743 0.30606-0.25112 0-0.4 0.0566-0.33084 0.12574 0.18322 0.18322 3.1303-0.31907 6.2345-1.0626 2.7573-0.66044 5.6966-1.7246 8.0312-2.9076 1.3091-0.66337 1.7134-1.0267 0.84418-0.7587-0.25467 0.0785 0.54907-0.39858 1.7861-1.0602 1.237-0.66163 2.6404-1.5604 3.1188-1.9973 0.83252-0.76039 0.85189-0.82148 0.45338-1.4297-0.38124-0.58185-0.37929-0.64956 0.0232-0.804 0.35306-0.13548 0.40542-0.38166 0.26627-1.2519-0.22021-1.3771-4.4807-14.26-5.968-18.046l-1.1259-2.8661 0.7562-0.88757c0.41591-0.48817 1.8277-2.1562 3.1373-3.7067s2.8238-3.0831 3.3648-3.4057c0.54104-0.32264 1.4647-1.0316 2.0525-1.5755 1.0642-0.9846 1.0698-0.98626 1.3001-0.38122 0.12721 0.33423 0.4347 1.0839 0.6833 1.666 0.24861 0.58208 0.60577 1.5346 0.7937 2.1167 0.54438 1.6862 1.8104 4.2495 1.9266 3.9008 0.20543-0.61628-0.97758-4.2052-2.3381-7.0932-0.59246-1.2576-0.61714-1.6671-0.13846-2.2977 0.53762-0.70822 0.7513-0.55428 0.55088 0.39688-0.13867 0.65811-0.10766 0.7898 0.13215 0.5612 0.17233-0.16428 0.37915-0.78936 0.45958-1.3891 0.15562-1.1602 0.70878-1.4721 0.9532-0.53748 0.10846 0.41476 0.27892 0.51025 0.68232 0.38222 0.29575-0.09387 0.77621-0.04304 1.0677 0.11294 0.72463 0.38781 2.7183 3.7969 2.5211 4.3109-0.0867 0.22581 0.0906 0.89705 0.39398 1.4916 0.30334 0.5946 0.71868 1.9547 0.92297 3.0224 0.20428 1.0677 0.81096 3.1228 1.3482 4.567 1.1054 2.9715 3.6539 8.475 4.2115 9.0944 1.9203 2.1336 3.1064 8.0776 3.1177 15.624 7e-3 4.417-0.43216 7.1792-2.332 14.68-1.387 5.4766-1.5438 5.729-4.4756 7.204-1.0186 0.51249-1.9022 0.97784-1.9634 1.0341-0.0612 0.0563 0.13922 0.36974 0.4454 0.69659 0.93061 0.99344 1.1211 1.9373 1.1211 5.555 0 2.9684-0.0793 3.6348-0.54714 4.6014-1.4077 2.9079-5.8496 4.961-13.079 6.0452-2.756 0.41334-6.4159 0.44897-12.7 0.12361zm17.813-6.8714c3.6358-1.0095 7.1897-3.0474 7.1897-4.1228 0-1.0015-3.6865-2.7935-6.8355-3.3227-1.7222-0.28944-1.9019-0.26139-7.6828 1.1993-4.9833 1.2592-6.615 1.5547-10.319 1.8684-5.3411 0.45251-7.5253 0.92874-10.999 2.398-1.4637 0.61922-3.1376 1.2737-3.7197 1.4544-0.58209 0.18073-1.1545 0.41638-1.2721 0.52366-0.36271 0.33093 7.1642 0.50357 10.797 0.24765 2.4501-0.17261 5.3424-0.13436 10.054 0.13296 7.676 0.4355 10.113 0.36326 12.786-0.379zm-23.618-4.9629c-0.1249-0.1249-2.5296 0.91395-2.5296 1.0928 0 0.0684 0.59265-0.12598 1.317-0.43201s1.27-0.60339 1.2126-0.6608zm-3.588-0.91195c3.2289-0.86265 4.2505-0.97762 6.1633-0.69363 1.5615 0.23183 2.0377 0.19399 3.6246-0.28802 3.3518-1.0181 2.7646-1.1791-3.9671-1.0878-9.602 0.13018-17.198 0.84098-17.198 1.6093 0 0.26587 1.6255 0.74813 3.5719 1.0598 1.8715 0.29961 5.4757 0.0227 7.8052-0.59962zm24.276-31.089c1.0365-0.83209 1.4122-1.3981 0.92605-1.3953-0.27137 2e-3 -2.712 2.2318-2.712 2.4782 0 0.26455 0.43941-2e-3 1.7859-1.0829zm0.71303-2.8167c0.47306-1.6951 0.9709-5.6403 1.0063-7.9746l0.0268-1.7684 0.47183 0.88524c0.32488 0.60953 0.48485 1.5445 0.51362 3.0019 0.023 1.1642 0.10031 1.8785 0.17185 1.5875 0.0715-0.29104 0.22577-0.64823 0.34273-0.79375 0.11697-0.14552 0.36273-0.99241 0.54615-1.882 0.25625-1.2428 0.2756-3.0007 0.0836-7.5908-0.29354-7.016-0.59312-7.8969-1.4277-4.1981-0.27703 1.2278-0.3807 1.404-0.57132 0.97081-0.15991-0.36334-0.19331-0.14852-0.10659 0.68552 0.0695 0.66808 0.0254 1.3229-0.0978 1.4552-0.20911 0.2244-0.47753 1.8292-1.8989 11.353-0.94735 6.3476-0.93726 5.9125-0.13352 5.7589 0.57365-0.10966 0.75982-0.36828 1.073-1.4906zm-72.688-6.4475c-0.0608-0.40219-0.1122-0.13593-0.11419 0.59167-2e-3 0.72761 0.0478 1.0567 0.11058 0.73124 0.0628-0.32542 0.0644-0.92073 4e-3 -1.3229zm77.771-7.718c-0.0997-4.9263-0.14299-5.306-0.66912-5.8707l-0.56251-0.60378v3.8561c0 2.9049 0.0974 4.043 0.39504 4.6139 0.21727 0.41682 0.47073 1.3234 0.56325 2.0146 0.0925 0.69123 0.21586 1.2568 0.27409 1.2568 0.0582 0 0.0579-2.3701-8e-4 -5.2669zm-0.25075-12.259c-0.0633-0.32912-0.11747-0.12215-0.12041 0.45994-3e-3 0.58208 0.0488 0.85136 0.11507 0.59839 0.0662-0.25296 0.0686-0.72921 5e-3 -1.0583zm0.25268-1.5906c-0.0734-0.1819-0.13346-0.0331-0.13346 0.33073 0 0.3638 0.0601 0.51263 0.13346 0.33072 0.0734-0.1819 0.0734-0.47955 0-0.66145zm0.24921-2.508c-0.26896-0.26895-0.49087 0.13597-0.2702 0.49302 0.16669 0.26972 0.22902 0.26993 0.31864 0.0011 0.0613-0.18383 0.0395-0.40617-0.0484-0.49409zm-29.293 49.547c-0.12855-1.776 0.0223-3.0985 0.34122-2.9922 0.17151 0.0572 0.4394 0.33498 0.59532 0.61736 0.15591 0.28238 0.39577 0.59419 0.53302 0.69291 0.35557 0.25575-0.2383 1.4449-0.89789 1.7979-0.43555 0.2331-0.54806 0.21028-0.57167-0.11597zm-2.1968-0.8692c0.0985-0.5457 0.23989-1.0976 0.31428-1.2264 0.19037-0.32964 0.83291 0.90583 0.84421 1.6232 7e-3 0.4639-0.1393 0.59532-0.66407 0.59532-0.63365 0-0.66287-0.0587-0.49442-0.99219zm-8.6678-2.4492c-0.53468-0.13539-1.3476-0.47451-1.8066-0.75361l-0.83443-0.50745 2.7326-0.17942c2.7719-0.182 6.4037-0.54988 8.2392-0.83458l1.0087-0.15645-0.1652 2.2342-1.9844 0.0604c-1.0914 0.0332-2.9369 0.13302-4.101 0.22174-1.1642 0.0887-2.5541 0.0505-3.0888-0.0848zm-14.374-2.4934c-1.6007-0.33471-4.1606-1.0042-5.6885-1.4877-1.528-0.4835-3.0758-0.90403-3.4396-0.93451-2.423-0.203-3.9586-0.53144-4.7625-1.0187-0.50932-0.30868-1.3518-0.78213-1.8721-1.0521-1.7932-0.9304-2.6276-1.8028-2.8056-2.9337-0.0916-0.58209-0.2857-1.1363-0.43128-1.2316-0.17526-0.11472-0.15739-0.96393 0.0529-2.5135 0.17467-1.2872 0.33422-3.6202 0.35454-5.1844 0.0339-2.61 0.0876-2.8917 0.65245-3.4224 0.76172-0.71561 1.0603-1.8136 1.2912-4.7482l0.17968-2.2834 1.8358-0.82543c2.1272-0.95642 2.4448-1.011 2.108-0.36242-0.33149 0.63838-3.6059 12.777-4.4006 16.314-0.64028 2.8495-0.64969 3.4646-0.0497 3.2494 0.40331-0.14469 1.7617 0.54787 1.7617 0.89819 0 0.15037 0.0978 0.21297 0.21728 0.13911 0.1195-0.0738 0.77928 0.40425 1.4662 1.0624 0.6869 0.6582 1.8095 1.4359 2.4947 1.7282 0.6852 0.29229 1.7816 0.77432 2.4364 1.0712 2.165 0.98143 6.4805 2.2788 8.7476 2.6297 1.7287 0.26758 2.0535 0.37958 1.4389 0.49618-0.66872 0.12687-0.48118 0.217 1.1906 0.57219 1.3865 0.29458 1.7054 0.42529 1.0583 0.43386-0.50933 7e-3 -2.2357-0.26159-3.8365-0.59629zm-12.039-3.9871c-0.36381-0.20797-0.78053-0.37812-0.92605-0.37812s0.0331 0.17015 0.39688 0.37812c0.3638 0.20797 0.78052 0.37813 0.92604 0.37813s-0.0331-0.17016-0.39687-0.37813zm14.767 3.6557c0.191-0.0764 0.4192-0.067 0.50712 0.0209 0.0879 0.0879-0.0684 0.15045-0.34726 0.13896-0.30823-0.0127-0.37092-0.0754-0.15986-0.15985zm-1.3959-1.2083c-0.0583-0.1819-1.1147-3.1882-2.3475-6.6807s-3.3424-9.7433-4.688-13.891c-1.3456-4.1473-2.5283-7.6343-2.6282-7.7489s-0.49868-0.0877-0.88617 0.0596c-1.7287 0.65724-0.17523-0.33174 3.72-2.3682l2.1756-1.1374 3.513 0.57527c1.9321 0.31639 3.8106 0.57479 4.1744 0.57422 0.43767-8e-4 1.4248 0.64667 2.9176 1.9134 1.2409 1.0529 2.7191 2.2952 3.2849 2.7607 0.76947 0.63297 0.95966 0.93304 0.75468 1.1906-0.33162 0.41671-9.3384 24.295-9.3384 24.757 0 0.42593-0.51492 0.42199-0.65179-5e-3zm-19.269-1.7859c-0.0865-0.33071-8e-3 -0.52917 0.20895-0.52917 0.21708 0 0.29544 0.19846 0.20896 0.52917-0.0761 0.29104-0.17014 0.52917-0.20896 0.52917-0.0388 0-0.13284-0.23813-0.20895-0.52917zm-1.3197 0.10298c-0.28808-0.28807-0.2295-1.4259 0.0734-1.4259 0.14552 0 0.2664-0.32742 0.26863-0.7276 3e-3 -0.56699 0.0607-0.63999 0.26053-0.33073 0.14107 0.21828 0.25831 0.70154 0.26054 1.0739 5e-3 0.76222-0.5709 1.7025-0.86311 1.4103zm-1.3259-1.855c-0.10353-0.10352-0.18822-0.35195-0.18822-0.55206s-0.23813-0.61944-0.52917-0.93183c-0.64242-0.68956-0.67969-1.0658-0.0942-0.95064 0.74397 0.14631 1.4696 1.3526 1.2199 2.0278-0.12104 0.3272-0.30477 0.5102-0.40829 0.40668zm42.955-3.8482c-0.82817-0.88894-0.72006-1.3124 0.24881-0.97467 0.49477 0.17248 0.79375 0.4604 0.79375 0.76437 0 0.76126-0.44553 0.85113-1.0426 0.2103zm23.124-0.23817c-0.0959-0.1552-0.11765-0.33893-0.0483-0.40828 0.0694-0.0694 0.1966 0.0576 0.28278 0.28218 0.1789 0.46623 0.0264 0.54824-0.23448 0.1261zm-22.767-3.786c-0.0839-0.21867-0.0403-0.59826 0.097-0.84353 0.21299-0.3806 0.2692-0.34325 0.38353 0.25482 0.14621 0.76481-0.23415 1.2308-0.48053 0.58871zm2.4381-2.2724c0.17946-2.0223 0.47165-2.5858 1.0794-2.0814 0.18493 0.15348 0.51639 0.20992 0.73657 0.12542 0.35737-0.13713 0.35736-0.0507-1e-4 0.80477-0.22024 0.52713-0.34038 1.0185-0.26697 1.0919 0.0734 0.0734 2e-3 0.29174-0.15842 0.48518-0.16054 0.19343-0.2251 0.52575-0.14347 0.73847 0.10001 0.26063 0.0224 0.33841-0.23799 0.23849-0.25447-0.0976-0.33797-0.0221-0.24456 0.22136 0.093 0.24228-0.0448 0.36964-0.39976 0.36964-0.51351 0-0.53243-0.10349-0.3647-1.9938zm-2.6346 0.60791c-0.28-0.28-0.20453-1.9403 0.0882-1.9403 0.14552 0 0.26459 0.47625 0.26459 1.0583 0 1.0814-0.0438 1.1909-0.35278 0.88194zm0.86771-2.8929c-0.33067-0.61786-0.31658-0.72583 0.13815-1.0583 1.1108-0.81226 1.6878-0.27798 1.0017 0.92754-0.5654 0.99339-0.67168 1.0056-1.1398 0.1308zm-4.264-1.8916c-0.44052-1.1214-0.3033-1.4659 0.29616-0.7436 0.17386 0.20948 0.27773 0.7155 0.23084 1.1245-0.0815 0.71085-0.10472 0.69408-0.527-0.38088zm-0.57291-2.5947c-0.47307-0.4161-1.3145-1.9519-2.2786-4.1588-2.2454-5.14-2.1374-4.95-2.7589-4.8551-0.3818 0.0583-0.71615 0.49672-1.0922 1.4323-0.2981 0.74158-0.62155 1.4279-0.71877 1.5251-0.16569 0.16569-3.6944-2.5552-4.3708-3.3702-0.26384-0.3179 0.41577-0.37422 4.6395-0.38447 10.172-0.0247 20.962-1.9866 28.047-5.0999 1.3534-0.59469 2.5248-1.0812 2.6033-1.0812 0.17189 0-3.4176 4.1855-3.6136 4.2137-0.0754 0.0108-0.34016-0.30775-0.58828-0.70793-0.24811-0.40018-0.45428-0.57877-0.45815-0.39687-4e-3 0.1819-0.22544 0.33073-0.49238 0.33073-0.38355 0-0.6372 0.51326-1.2095 2.4474-0.79043 2.6714-0.83266 2.7294-5.4024 7.4296-2.066 2.125-2.3025 2.294-2.6142 1.8677-0.1885-0.25779-0.34273-0.55057-0.34273-0.65062 0-0.35648-1.5587-0.82009-2.1385-0.63607-0.32449 0.10299-0.86069 0.47934-1.1916 0.83635l-0.60156 0.6491-0.54775-0.54775c-0.80351-0.8035-2.0127-0.71099-2.9494 0.22565-0.42537 0.42537-0.77339 0.96115-0.77339 1.1906 0 0.57364-0.26921 0.51279-1.1469-0.25922zm-37.164-1.6387c0.0709-1.6183 0.13183-1.7886 0.6491-1.8148 0.48149-0.0243 0.5993 0.16076 0.75249 1.1823 0.11898 0.79343 0.0818 1.2445-0.10784 1.3077-0.15921 0.0531-0.28947 0.32469-0.28947 0.60361 0 0.3345-0.18424 0.50712-0.54126 0.50712-0.49955 0-0.53523-0.1376-0.46302-1.7859zm-0.32225-2.7252c-2e-3 -0.21101-0.0754-0.65154-0.16316-0.97896-0.0877-0.32742-0.0405-0.59531 0.10507-0.59531 0.36018 0 0.61001 1.3936 0.30593 1.7066-0.15255 0.15699-0.24559 0.10733-0.24784-0.13229zm2.2536-2.3619c-0.22655-1.3409-1.1748-2.7601-1.9158-2.8672-0.31555-0.0456-0.65616-0.34266-0.75693-0.66014-0.10076-0.31749-0.52143-0.87549-0.93482-1.24-0.92537-0.81598-1.4295-2.4057-1.9715-6.2174-0.30727-2.1606-0.54481-3.0309-0.92352-3.3837-0.28041-0.26125-0.50984-0.64514-0.50984-0.85309 0-0.20795 0.92273 0.5472 2.0505 1.6781 1.1278 1.1309 2.7451 2.5093 3.594 3.0631 3.1376 2.0468 8.1402 4.2024 12.05 5.1924 0.63698 0.16129 1.0537 0.38763 0.92604 0.50299-0.3492 0.31557-3.2758 1.8684-3.5213 1.8684-0.11765 0-0.36328-0.53352-0.54585-1.1856-0.34943-1.248-0.85961-1.8797-1.2989-1.6082-0.14427 0.0892-0.57025 1.1717-0.94662 2.4056l-0.6843 2.2435-2.1018 1.0568c-1.156 0.58123-2.1535 1.0568-2.2167 1.0568s-0.1949-0.47347-0.29267-1.0522zm-3.0438 0.11052c0-0.22687 0.11906-0.33891 0.26458-0.24897 0.14552 0.0899 0.26459 0.27556 0.26459 0.41249s-0.11907 0.24897-0.26459 0.24897-0.26458-0.18563-0.26458-0.41249zm33.817-5.5891c0.19099-0.0764 0.41919-0.067 0.50712 0.0209 0.0879 0.0879-0.0684 0.15045-0.34727 0.13896-0.30823-0.0127-0.37092-0.0754-0.15985-0.15985zm-13.592-0.99207c-0.70568-0.52084-0.15902-1.1621 0.58539-0.68671 0.42639 0.2723 0.42964 0.29367 0.0255 0.16801-0.25466-0.0792-0.46302-0.0357-0.46302 0.0967 0 0.43031 0.54305 0.58975 0.92604 0.2719 0.40808-0.33868 1.0281-0.11455 0.78245 0.28286-0.22915 0.37078-1.2755 0.29594-1.8564-0.13276zm-0.625-2.1565c0.0127-0.30822 0.0754-0.37092 0.15985-0.15985 0.0764 0.19099 0.067 0.4192-0.0209 0.50712-0.0879 0.0879-0.15045-0.0684-0.13897-0.34727zm-24.047-2.6673c-0.30102-0.57108-0.33786-1.9409-0.0522-1.9409 0.22161 0 0.61477 2.12 0.42783 2.3069-0.0658 0.0658-0.23483-0.0989-0.37563-0.36605zm35.719-1.1017c-0.20536-0.13482 1.1325-0.29483 3.3073-0.39556 3.9262-0.18184 10.763-0.96616 14.345-1.6456 2.4885-0.47207 8.6973-2.3223 9.9274-2.9585 0.70851-0.36638 0.74654-0.43907 0.30987-0.59225-0.39194-0.13748-0.22281-0.28126 0.7955-0.67624 2.282-0.88512 3.5558-0.2752 1.3801 0.66078-6.0395 2.5981-14.137 4.5961-21.386 5.2766-4.57 0.42904-8.3123 0.57164-8.6792 0.33072zm-8.5187-0.52146c0-0.1163 0.41671-0.1628 0.92604-0.10334 0.50932 0.05946 0.92604 0.15461 0.92604 0.21146 0 0.0568-0.41672 0.10334-0.92604 0.10334-0.50933 0-0.92604-0.0952-0.92604-0.21146zm-4.3656-0.34403c-0.43656-0.13498-1.8653-0.48259-3.175-0.77246-5.5767-1.2343-11.149-3.5096-14.566-5.9479-3.1557-2.2519-5.6977-5.8778-5.6576-8.0699l0.017-0.92604 0.5256 1.3316c2.1293 5.3944 8.7172 9.6969 18.858 12.316 2.1987 0.56785 3.4023 0.95866 2.6747 0.86847-1.5512-0.19228-1.52 0.03227 0.0534 0.38581 0.635 0.14267 1.1951 0.14797 1.3305 0.01257 0.12861-0.12861 0.82233-0.14749 1.5416-0.04196l1.3078 0.19188-0.92604 0.17209-0.92605 0.17209 0.8599 0.03483c0.47294 0.01916 0.8599 0.15389 0.8599 0.29941 0 0.32426-1.6962 0.30819-2.7781-0.02633zm-7.2684-0.22793c-0.21407-0.13538-0.3085-0.32686-0.20985-0.42551 0.24212-0.24212 0.99594 0.06584 0.99594 0.40687 0 0.33605-0.27392 0.34254-0.78609 0.01863zm28.109-0.19369c0.25743-0.06708 0.61462-0.06267 0.79375 0.0098 0.17913 0.07248-0.0315 0.12736-0.46805 0.12197-0.43657-0.0054-0.58313-0.06469-0.3257-0.13177zm2.5085-0.25646c0.1819-0.0734 0.47956-0.0734 0.66146 0s0.0331 0.13345-0.33073 0.13345c-0.3638 0-0.51263-0.06006-0.33073-0.13345zm-33.734-0.36218c-0.50217-0.20185-0.85546-0.7855-0.47546-0.7855 0.33756 0 1.4676 0.64389 1.4676 0.83622 0 0.27152-0.21826 0.26036-0.99219-0.05072zm37.455-0.1725c0.191-0.07643 0.4192-0.06703 0.50712 0.02088 0.0879 0.08792-0.0683 0.15045-0.34726 0.13896-0.30823-0.0127-0.37092-0.07539-0.15986-0.15985zm21.745-0.99427c0-0.39718 0.47501-0.81942 0.68529-0.60914 0.18454 0.18454-0.18081 0.9904-0.44902 0.9904-0.12995 0-0.23627-0.17157-0.23627-0.38126zm-0.77286-1.5564c-0.0171-0.82655 0.0638-0.99545 0.44213-0.92334 0.58209 0.11094 0.80017 1.2735 0.23888 1.2735-0.21627 0-0.45328 0.14883-0.52668 0.33073s-0.14285-0.12449-0.15433-0.68086zm1.6989-0.17904c-0.0899-0.14552-0.0374-0.26458 0.11667-0.26458 0.15411 0 0.2802 0.11906 0.2802 0.26458s-0.0525 0.26458-0.11667 0.26458c-0.0642 0-0.19026-0.11906-0.2802-0.26458zm-11.18-3.0197c-2.5686-0.70448-2.9401-0.94904-1.4417-0.94904 1.1147 0 3.889 0.89248 4.1656 1.34 0.21874 0.35393-0.25678 0.28567-2.724-0.391zm12.436-3.8134c-0.2413-0.1532-0.109-0.42183 0.48664-0.98813 0.89277-0.8488 1.5645-1.9723 1.5645-2.6167 0-0.30697-0.28701-0.41001-1.142-0.41001-1.8208 0-4.2207-0.51533-4.9988-1.0734-0.39429-0.28278-1.1682-0.5232-1.7198-0.53427-1.1892-0.02387-2.9427-0.6064-2.5521-0.8478 0.15049-0.09301 1.0761-0.19873 2.0568-0.23494 1.4354-0.053 1.9108-0.18409 2.4374-0.67211 0.5058-0.46876 0.96315-0.60627 2.0164-0.60627 1.0595 0 1.2916-0.07056 1.0447-0.3175-0.62515-0.62515-0.28224-0.74083 2.196-0.74083h2.5135l-6e-3 2.1828c-7e-3 2.4725-0.43926 3.7022-2.0421 5.804-0.97971 1.2847-1.2509 1.4389-1.8554 1.0551zm3.1312-4.1136c0.52316-1.1521 0.66655-2.1475 0.27444-1.9051-0.12815 0.0792-0.29196 0.41364-0.36404 0.74322-0.0721 0.32957-0.33053 1.0565-0.57434 1.6154-0.25859 0.59277-0.31591 0.93747-0.13758 0.82725 0.16815-0.10392 0.52883-0.68027 0.80152-1.2808zm-76.374 1.0171c-0.33802-0.80901-0.37155-1.224-0.15573-1.9272 0.19381-0.63147 0.18959-1.1033-0.0143-1.5973-0.39199-0.94992-0.29461-1.4752 0.63834-3.443 0.439-0.92597 0.82298-1.8526 0.85329-2.0591 0.0998-0.67998 3.157-3.5456 5.3426-5.0079 2.7324-1.8281 6.5093-3.6159 7.1331-3.3765 0.26901 0.10323 0.39924 0.0721 0.30903-0.07388-0.0898-0.14535 0.25627-0.23231 0.81649-0.20516 0.53483 0.02592 1.9249-0.22822 3.0891-0.56476 1.1642-0.33654 2.9501-0.80636 3.9688-1.044 1.0186-0.23768 2.0138-0.48677 2.2115-0.55352 0.28929-0.0977 0.3409 0.33077 0.26458 2.1964-0.0948 2.3165-0.0944 2.3178 0.58045 2.3965 1.4217 0.16564 2.1308-1.8929 0.84609-2.4565-0.64009-0.28082-0.73826-0.7836-0.35159-1.8006 0.26852-0.70626 0.26354-0.70503 5.5771-1.3747 3.6038-0.45417 13.906-0.52755 17.671-0.12586 1.4131 0.15076 3.7999 0.5175 5.3041 0.81497 1.5042 0.29748 2.7894 0.48627 2.8562 0.41955 0.0667-0.06672-0.68771-0.27028-1.6765-0.45235-1.9048-0.35074-2.677-0.63571-2.2948-0.84695 0.12783-0.07066 1.2973 0.08624 2.5988 0.34868 5.3141 1.0715 11.616 3.4074 11.709 4.3398 0.0288 0.28936 0.20176 1.3295 0.38435 2.3113 0.21026 1.1306 0.23957 1.8769 0.0799 2.0351-0.13863 0.13744-1.7403 0.33154-3.5594 0.43133-3.0763 0.16877-3.4552 0.13496-5.424-0.48393-6.5232-2.0506-17.818-2.867-26.591-1.9222-14.791 1.5932-26.901 6.8638-30.751 13.384l-0.98537 1.6686zm10.588-15.347c0.28247-0.21365 0.40153-0.38467 0.26458-0.38005-0.13695 0.0046-0.48012 0.18322-0.7626 0.39688-0.28247 0.21365-0.40153 0.38467-0.26458 0.38005 0.13695-0.0046 0.48012-0.18322 0.7626-0.39688zm2.926-1.3277c0.7276-0.35322 1.0253-0.56892 0.66146-0.47932-0.7583 0.18674-2.648 1.1329-2.249 1.1261 0.14552-0.0025 0.8599-0.29354 1.5875-0.64676zm53.292 0.31366c-0.0606-0.05305-0.4079-0.23821-0.77171-0.41147-0.62369-0.29703-0.63213-0.29153-0.14786 0.09645 0.42148 0.33768 1.2827 0.63269 0.91957 0.31502zm-2.6238-1.2265c-0.21828-0.14106-0.51594-0.25648-0.66146-0.25648s-0.086 0.11542 0.13229 0.25648c0.21828 0.14106 0.51594 0.25648 0.66146 0.25648s0.086-0.11542-0.13229-0.25648zm-1.749-0.66873c-0.45263-0.19854-1.167-0.42785-1.5875-0.50957-0.42049-0.08172-0.16922 0.0812 0.55838 0.36206 1.5096 0.58272 2.2697 0.69166 1.0291 0.14751zm-2.8812-0.91877c-0.29104-0.12506-0.70776-0.22739-0.92604-0.22739-0.25016 0-0.20125 0.08406 0.13229 0.22739 0.29104 0.12506 0.70776 0.22739 0.92604 0.22739 0.25016 0 0.20126-0.08406-0.13229-0.22739zm-1.5269-0.42444c-0.0879-0.08792-0.31613-0.09732-0.50712-0.02089-0.21107 0.08446-0.14838 0.14716 0.15985 0.15985 0.27891 0.01149 0.43518-0.05104 0.34727-0.13896zm11.241 7.4991c-0.39673-0.48606-1.1232-3.1059-0.86124-3.1059 0.12406 0 0.15867-0.25579 0.0769-0.56842l-0.14864-0.56842 0.85839 0.50227c1.1489 0.67227 4.2509 3.2354 4.2509 3.5124 0 0.12122-0.79262 0.2422-1.7614 0.26885-0.96875 0.02665-1.8482 0.10214-1.9544 0.16775-0.10617 0.06561-0.31343-0.02822-0.46059-0.20852zm0.86994-2.3108c-0.0894-0.14474-0.4239-0.39085-0.74321-0.54692-0.50018-0.24446-0.48898-0.20883 0.0809 0.25728 0.74076 0.60591 0.90114 0.67604 0.66233 0.28965z" fill="#f1002a" stroke-width=".26458"/>
</g>
</svg>
