<?xml version="1.0" encoding="UTF-8" standalone="no"?>
<svg
   xmlns:dc="http://purl.org/dc/elements/1.1/"
   xmlns:cc="http://creativecommons.org/ns#"
   xmlns:rdf="http://www.w3.org/1999/02/22-rdf-syntax-ns#"
   xmlns:svg="http://www.w3.org/2000/svg"
   xmlns="http://www.w3.org/2000/svg"
   xmlns:sodipodi="http://sodipodi.sourceforge.net/DTD/sodipodi-0.dtd"
   xmlns:inkscape="http://www.inkscape.org/namespaces/inkscape"
   version="1.1"
   id="svg851"
   width="150.91873"
   height="34.775417"
   viewBox="0 0 150.91874 34.775418"
   sodipodi:docname="title.svg"
   inkscape:version="1.0.1 (3bc2e81, 2020-09-07)">
  <metadata
     id="metadata857">
    <rdf:RDF>
      <cc:Work
         rdf:about="">
        <dc:format>image/svg+xml</dc:format>
        <dc:type
           rdf:resource="http://purl.org/dc/dcmitype/StillImage" />
        <dc:title></dc:title>
      </cc:Work>
    </rdf:RDF>
  </metadata>
  <defs
     id="defs855" />
  <sodipodi:namedview
     pagecolor="#ffffff"
     bordercolor="#666666"
     borderopacity="1"
     objecttolerance="10"
     gridtolerance="10"
     guidetolerance="10"
     inkscape:pageopacity="0"
     inkscape:pageshadow="2"
     inkscape:window-width="1338"
     inkscape:window-height="694"
     id="namedview853"
     showgrid="false"
     inkscape:zoom="3.2148768"
     inkscape:cx="81.025723"
     inkscape:cy="32.713072"
     inkscape:window-x="14"
     inkscape:window-y="60"
     inkscape:window-maximized="0"
     inkscape:current-layer="g859" />
  <g
     inkscape:groupmode="layer"
     inkscape:label="Image"
     id="g859"
     transform="translate(15.372855,19.885075)">
    <path
       style="fill:#000000;stroke-width:0.32"
       d="m 95.619567,14.330344 c -0.0305,-1.485888 -2.46644,-3.071242 -5.26849,-3.428883 -0.88,-0.112317 -2.536,-0.343517 -3.68,-0.513776 -1.144,-0.170256 -2.56506,-0.361908 -3.1579,-0.4258879 -1.72658,-0.186333 -1.84438,-0.88602 -0.26975,-1.602148 5.14148,-2.338301 10.60028,-4.869075 12.22765,-5.668905 1.84373,-0.90618 1.86916,-0.934756 0.64,-0.71946 -0.704,0.123312 -4.304,0.243015 -8,0.26601 -4.09434,0.02547 -7.4702,0.202234 -8.64,0.452403 -2.092731,0.447533 -4.290449,0.38801 -4.406689,-0.119353 -0.04032,-0.176 0.646685,-0.355044 1.526685,-0.397876 4.062904,-0.197756 8.823894,-1.81432302 9.909944,-3.364873 0.82527,-1.178234 0.62449,-2.627241 -0.4945,-3.568805 -1.07353,-0.903318 -1.89836,-1.017245 -3.44962,-0.47647 -1.00547,0.350508 -1.61406,1.482755 -1.17707,2.189835 0.35451,0.573603 -0.14712,1.057907 -0.65724,0.634544 -0.908,-0.753568 -0.27502,-2.862436 1.03883,-3.461068 1.02625,-0.467593 3.38456,-0.45324 4.4386,0.02701 1.63678,0.745768 2.26767,3.293528 1.14769,4.634766 -0.32014,0.38338598 -1.28735,1.14921298 -2.14936,1.70183998 l -1.56727,1.00477502 6.62445,-0.10184 c 4.79684,-0.07374 6.73594,-0.21344 7.02851,-0.50634902 0.22568,-0.225927 0.47976,-1.568 0.57555,-3.03999998 0.13359,-2.053106 0.27756,-2.635491 0.65149,-2.635491 0.31489,0 0.51651,0.384811 0.58614,1.118716 0.0584,0.615294 0.25601,1.299294 0.43919,1.520001 0.23335,0.281178 0.22552,0.401284 -0.0262,0.401284 -0.19755,0 -0.35918,0.370611 -0.35918,0.82357698 0,0.45297 -0.37312,1.92897002 -0.82916,3.28000002 -1.25063,3.705015 -1.71914,6.305571 -1.72528,9.5764229 -0.005,2.415309 -0.0939,2.96 -0.48556,2.96 -0.264,0 -0.48518,-0.252 -0.49151,-0.56 z m 0.0115,-4.060144 c 0,-0.7810789 0.2185,-2.4010789 0.48555,-3.5999999 0.26705,-1.198922 0.56068,-2.515348 0.6525,-2.925389 0.21567,-0.963056 0.0629,-0.913763 -5.72842,1.848153 -2.4913,1.188122 -5.07804,2.418477 -5.74831,2.734122 -0.67027,0.315648 -1.10227,0.678183 -0.96,0.805629 0.14227,0.12745 2.03243,0.477101 4.20035,0.777005 2.16792,0.2999039 4.54392,0.8130589 5.28,1.1403489 0.73608,0.327286 1.44633,0.605238 1.57833,0.61767 0.132,0.01242 0.24,-0.616461 0.24,-1.397539 z M 128.83107,4.6327501 c -0.96919,-0.578413 -0.62009,-0.782406 1.33899,-0.782406 1.66494,0 2.01989,-0.115837 2.88,-0.939869 1.37653,-1.318807 1.26084,-1.91114602 -0.53899,-2.75946902 -2.69504,-1.27026898 -3.6,-2.11413098 -3.6,-3.35694698 0,-1.420945 0.75508,-2.161308 2.92149,-2.864543 2.80171,-0.909459 2.75284,-1.020506 -0.71054,-1.614283 -0.63198,-0.108349 -1.74143,-0.03749 -2.46545,0.157472 -2.83464,0.763291 -4.23246,3.018298 -4.12468,6.65409298 0.0392,1.321603 -0.0726,2.04701102 -0.33057,2.14602202 -0.61704,0.236797 -0.86372,-0.45018802 -1.07649,-2.997974 -0.17172,-2.056287 -0.31469,-2.47554 -1.06392,-3.119999 -0.96224,-0.827695 -2.87345,-0.995479 -3.74874,-0.329102 -0.2854,0.217276 -0.8974,0.952791 -1.36,1.634477 -0.69007,1.016867 -0.8411,1.604918 -0.8411,3.27477798 0,1.57200302 -0.10647,2.03534402 -0.46767,2.03534402 -0.45213,0 -0.83172,-1.04056002 -1.28408,-3.52 -0.40625,-2.226741 -1.51322,-4.768966 -2.30147,-5.285444 -1.04991,-0.687928 -2.94068,-0.67831 -4.41747,0.02247 -1.08211,0.513495 -3.04931,2.701123 -3.04931,3.390986 0,0.149594 0.48458,0.271988 1.07684,0.271988 2.21197,0 3.79561,2.54500398 2.66108,4.27651198 -0.96318,1.46999002 -1.51155,1.80348802 -2.96548,1.80348802 -1.2608,0 -1.49364,-0.117802 -2.05564,-1.04 -0.69318,-1.13746902 -0.65205,-1.99457002 0.23933,-4.98705 1.15278,-3.86998 5.36152,-6.155598 8.54209,-4.638894 1.04042,0.496145 2.30473,2.406665 2.87767,4.348504 0.13446,0.455715 0.49021,0.227808 1.87316,-1.200002 1.56613,-1.61694 1.82464,-1.76246 3.12906,-1.761362 1.42405,0.0012 3.50189,0.947052 3.50189,1.5941 0,0.630235 0.48904,0.307056 1.26978,-0.83912 1.37344,-2.016314 2.78232,-2.711779 5.49283,-2.711419 2.43899,3.2e-4 4.30453,0.544001 5.08229,1.481143 0.57232,0.689605 0.17553,0.932379 -2.3293,1.425173 -3.94277,0.775692 -4.37408,2.981138 -0.89359,4.569183 0.8019,0.36588098 1.70999,0.87981698 2.01799,1.14208598 1.1276,0.96017002 0.47871,2.86240302 -1.36,3.98690202 -1.06995,0.654346 -3.22566,0.947546 -3.92,0.533162 z m -21.81159,-3.285674 c 0.74494,-0.64077102 0.83449,-0.90110702 0.64938,-1.88784602 -0.26455,-1.41015398 -0.84607,-1.92643798 -2.01844,-1.79200998 -0.83199,0.0954 -0.89354,0.19762 -0.82179,1.36468498 0.0601,0.976739 -0.009,1.175418 -0.304,0.88 -0.59083,-0.590832 -0.89356,-0.455219 -0.89356,0.400295 0,0.83400302 1.04779,1.77814402 1.97335,1.77814402 0.30303,0 0.9398,-0.334471 1.41506,-0.743268 z M 13.86776,2.2366891 C 11.665085,1.0716361 11.284739,0.67073108 10.825293,-0.97025192 9.8446572,-4.4727379 11.655721,-8.6303269 15.030432,-10.623817 c 0.705082,-0.416503 0.920627,-0.780479 0.920627,-1.554602 0,-1.38715 0.83536,-3.636362 1.690816,-4.552531 2.796944,-2.995447 6.883642,-1.757201 8.722052,2.642731 0.31639,0.757233 0.686384,1.138562 1.104707,1.138562 1.110852,0 4.683268,1.317041 5.505463,2.029696 1.705226,1.4780391 2.026659,3.7376751 0.862467,6.0630531 -0.853133,1.704064 -2.476278,3.427252 -3.228278,3.427252 -0.855274,0 -0.698567,-0.408644 0.395459,-1.031236 1.215632,-0.691795 2.539904,-3.432512 2.544189,-5.265467 0.0026,-1.156625 -0.158535,-1.47041 -1.196874,-2.3291921 -1.137888,-0.941124 -3.673126,-1.934106 -4.93807,-1.934106 -0.441751,0 -0.583613,0.25051 -0.588947,1.04 -0.02115,3.1303841 -3.600353,6.6280411 -6.792974,6.6382161 -0.464985,0.0015 -0.56,0.299299 -0.56,1.755308 0,4.371657 -2.445232,6.463206 -5.603299,4.792822 z m 3.26753,-0.866345 c 1.086083,-1.19242002 1.375769,-2.02771202 1.375769,-3.966941 0,-1.619927 -0.105788,-1.93337 -0.853821,-2.52983 -0.72608,-0.578958 -0.845379,-0.903938 -0.797408,-2.172213 0.05687,-1.50314 -0.44407,-2.7710171 -1.094812,-2.7710171 -0.606918,0 -3.012362,2.5767581 -3.504106,3.7536711 -0.607584,1.454145 -0.608749,4.969498 -0.0019,6.14274598 0.458253,0.886163 2.718759,2.26283202 3.716416,2.26333102 0.277319,1.41e-4 0.799325,-0.323747 1.16001,-0.719747 z m 6.282029,-7.841181 c 1.614115,-1.158798 2.178848,-2.212153 2.244269,-4.1860811 l 0.04948,-1.492739 -1.236858,-0.101514 c -1.537018,-0.12615 -6.301024,0.804714 -6.847114,1.337892 -0.324486,0.316817 -0.285782,0.521278 0.196717,1.0391801 0.967469,1.038458 1.327254,1.919468 1.327254,3.250072 0,0.686237 0.07594,1.323647 0.168762,1.416467 0.387606,0.387606 2.859475,-0.374482 4.097498,-1.263277 z m -5.327654,-0.13882 c -0.102151,-0.255274 -0.177978,-0.179448 -0.193332,0.193334 -0.01389,0.337333 0.06173,0.526333 0.168071,0.42 0.106333,-0.106334 0.117699,-0.382334 0.02525,-0.613334 z m 3.301405,-6.2196591 c 1.32,-0.254486 2.688,-0.441731 3.04,-0.4161 1.140557,0.08305 1.171107,-0.0062 0.444707,-1.298622 -1.006915,-1.791562 -2.926621,-3.007994 -4.375895,-2.772809 -1.52143,0.246894 -2.5484,1.299896 -3.109072,3.187892 -0.551171,1.855991 -0.393686,2.268224 0.755168,1.976748 0.4648,-0.117924 1.925091,-0.422623 3.245092,-0.677109 z m 48.339542,12.75966008 c 0.01075,-0.132 1.031388,-1.02573798 2.268096,-1.98608398 3.194953,-2.480994 4.566832,-5.541136 3.773001,-8.4161471 -1.089078,-3.944314 -6.646857,-5.957651 -10.771757,-3.902127 -1.897872,0.945749 -2.969219,2.225962 -3.716755,4.4413621 -0.730458,2.164788 -0.696308,2.336249 0.432336,2.170599 1.409005,-0.206797 2.757334,0.47697 3.333088,1.69028 0.649299,1.3683 0.635907,1.597525 -0.177952,3.045592 -1.860755,3.31076798 -5.719597,2.05450898 -5.719597,-1.862037 0,-2.051874 1.605462,-6.6726221 2.805485,-8.0745771 3.273555,-3.824413 9.489568,-4.052028 12.963821,-0.474704 1.468397,1.511961 1.939252,2.930504 1.766311,5.3213821 -0.111981,1.548112 -0.361914,2.21247 -1.39601,3.710813 -1.776416,2.57392 -5.663399,5.604924 -5.560067,4.33564798 z M 64.002058,-2.9729399 c 1.020208,-2.042943 -0.211117,-4.09283 -2.265092,-3.770886 -1.325977,0.207837 -1.614611,0.610637 -1.620995,2.262149 -0.0038,0.996641 0.183414,1.423941 0.875101,1.996795 1.231763,1.020147 2.348182,0.839184 3.010986,-0.488058 z m -22.16181,1.133108 c -1.503539,-1.147389 -1.934419,-4.000032 -1.222064,-8.090682 0.26521,-1.5229401 0.596304,-2.2653301 1.403159,-3.1462121 0.92288,-1.007547 1.243881,-1.152931 2.545635,-1.152931 1.852512,0 3.638311,0.881567 4.857488,2.39792 0.509632,0.633855 1.250605,1.512173 1.646605,1.9518181 0.75744,0.840918 0.939127,1.263461 0.4,0.930262 -0.185552,-0.114678 -0.32,0.1966 -0.32,0.740882 0,1.201353 -0.820544,3.534626 -1.511539,4.298167 -0.70617,0.780312 -2.471213,1.602776 -3.150746,1.468168 -0.297686,-0.05897 -0.734013,-0.398077 -0.969613,-0.753572 -0.370275,-0.558701 -0.328093,-0.862787 0.31106,-2.242329 0.689836,-1.488942 2.462982,-3.411819 3.44983,-3.741143 0.76089,-0.25392 -0.103107,-1.8968511 -1.596576,-3.0359571 -1.12449,-0.857677 -1.67176,-1.054216 -2.935504,-1.054216 -1.353069,0 -1.639559,0.121097 -2.222157,0.939277 -0.892381,1.253236 -1.396589,4.1647381 -1.125597,6.4996461 0.167357,1.441953 0.442557,2.151055 1.145559,2.951727 0.508905,0.579613 0.925283,1.142829 0.925283,1.251597 0,0.339162 -1.094912,0.196547 -1.630823,-0.212422 z m 6.170717,-1.648621 c 1.220522,-0.509967 1.78865,-1.490545 2.075309,-3.581956 0.251053,-1.831626 -0.327932,-1.858013 -1.964205,-0.08952 -1.155616,1.248997 -1.820755,2.868739 -1.531817,3.730271 0.165152,0.492432 0.09443,0.49536 1.420713,-0.0588 z m -48.37989679,-0.799639 c 0,-0.16414 0.256285,-0.379778 0.569522,-0.479196 0.797786,-0.253207 3.55496899,-3.028279 4.15540899,-4.182369 0.311055,-0.597869 0.48869,-1.7215311 0.470906,-2.9788001 -0.03452,-2.440491 -0.888365,-3.7829 -3.08138,-4.84452 -1.37680699,-0.6665 -4.192239,-0.858039 -4.531985,-0.308318 -0.07711,0.12476 0.144131,0.853417 0.491639,1.619238 1.71041701,3.769327 -0.495716,8.8344481 -3.505107,8.0474751 -1.226967,-0.32086 -2.195213,-3.2157311 -1.792877,-5.3603651 0.114045,-0.607909 0.706071,-1.846379 1.315613,-2.752156 0.609543,-0.905777 1.10826,-1.772252 1.10826,-1.9255 0,-0.153248 -0.972,-0.561307 -2.16,-0.906798 -1.870115,-0.543861 -2.8277722,-0.630437 -4.4284402,-0.400343 -0.191642,0.02755 -0.892716,0.514996 -1.557943,1.083218 -1.206882,1.030892 -1.209086,1.037305 -1.017353,2.96 0.376446,3.774993 2.629051,7.8472151 4.4009922,7.9560411 0.612032,0.03759 0.817531,0.217531 0.788944,0.690828 -0.03044,0.503971 -0.241376,0.626366 -0.9924282,0.57585 -1.300431,-0.087466 -3.429608,-2.457734 -4.334525,-4.8253321 -0.844146,-2.208598 -1.181278,-6.073657 -0.643106,-7.372917 0.965912,-2.331918 6.4005522,-2.957889 9.7890192,-1.127517 0.658723,0.355828 1.855813,0.527279 3.86006,0.55285 2.634544,0.03361 3.051941,0.126855 4.480001,1.000787 4.408604,2.697942 3.91991,8.2293351 -1.095203,12.3962791 -1.03396299,0.859097 -2.29001799,1.17808 -2.29001799,0.581565 z m -3.68615701,-4.366956 c 1.558589,-1.021227 1.72713,-5.4178041 0.281168,-7.3346091 -0.472387,-0.626208 -0.502914,-0.616183 -1.416631,0.465194 -0.924179,1.093759 -1.502438,2.881027 -1.128104,3.486712 0.106541,0.172387 0.03392,0.366697 -0.161392,0.4318 -0.519773,0.173257 0.925511,3.4562941 1.521557,3.4562941 0.07264,0 0.479173,-0.227426 0.903402,-0.505391 z"
       id="path863" />
  </g>
</svg>
